<svg width="50" height="50" viewBox="0 0 50 50" fill="none" xmlns="http://www.w3.org/2000/svg">
<path d="M12.6797 15.8623C12.6797 15.4004 12.6867 14.9245 12.7007 14.4346C12.7287 13.9447 12.7917 13.4757 12.8896 13.0278C12.9876 12.5799 13.1486 12.16 13.3726 11.7681C13.5965 11.3621 13.9045 11.0122 14.2964 10.7183C14.7023 10.4103 15.2132 10.1724 15.8291 10.0044C16.459 9.83643 17.2288 9.75244 18.1387 9.75244H20.8892V11.1592H18.5796C17.8237 11.1592 17.1729 11.2222 16.627 11.3481C16.0951 11.4741 15.6471 11.6911 15.2832 11.999C14.9333 12.293 14.6743 12.6989 14.5063 13.2168C14.3384 13.7347 14.2544 14.3856 14.2544 15.1694V23.106H20.6582V24.5127H14.2544V39H12.6797V15.8623ZM24.9834 11.4741V39H23.4087V9.75244H24.7524C25.9562 10.3683 26.971 11.1032 27.7969 11.957C28.6367 12.8109 29.3086 13.9167 29.8125 15.2744H29.9175C30.4214 13.9167 31.0863 12.8109 31.9121 11.957C32.738 11.1032 33.7668 10.3683 34.9985 9.75244H36.3003V39H34.7256V11.4741C34.3057 11.6421 33.8507 11.95 33.3608 12.3979C32.8709 12.8459 32.416 13.4198 31.9961 14.1196C31.5762 14.8195 31.2262 15.6383 30.9463 16.5762C30.6663 17.514 30.5264 18.5638 30.5264 19.7256V20.2505H29.1616V19.7256C29.1616 18.5638 29.0216 17.514 28.7417 16.5762C28.4757 15.6383 28.1398 14.8265 27.7339 14.1406C27.328 13.4408 26.873 12.8669 26.3691 12.4189C25.8792 11.971 25.4173 11.6561 24.9834 11.4741Z" fill="#F3F4F6"/>
</svg>
