<svg width="25" height="30" viewBox="0 0 25 30" fill="none" xmlns="http://www.w3.org/2000/svg">
<path d="M0.679688 6.8623C0.679688 6.40039 0.686686 5.92448 0.700684 5.43457C0.728678 4.94466 0.791667 4.47575 0.889648 4.02783C0.98763 3.57992 1.1486 3.15999 1.37256 2.76807C1.59652 2.36214 1.90446 2.01221 2.29639 1.71826C2.70231 1.41032 3.21322 1.17236 3.8291 1.00439C4.45898 0.836426 5.22884 0.752441 6.13867 0.752441H8.88916V2.15918H6.57959C5.82373 2.15918 5.17285 2.22217 4.62695 2.34814C4.09505 2.47412 3.64714 2.69108 3.2832 2.99902C2.93327 3.29297 2.67432 3.69889 2.50635 4.2168C2.33838 4.7347 2.25439 5.38558 2.25439 6.16943V14.106H8.6582V15.5127H2.25439V30H0.679688V6.8623ZM12.9834 2.47412V30H11.4087V0.752441H12.7524C13.9562 1.36833 14.971 2.10319 15.7969 2.95703C16.6367 3.81087 17.3086 4.91667 17.8125 6.27441H17.9175C18.4214 4.91667 19.0863 3.81087 19.9121 2.95703C20.738 2.10319 21.7668 1.36833 22.9985 0.752441H24.3003V30H22.7256V2.47412C22.3057 2.64209 21.8507 2.95003 21.3608 3.39795C20.8709 3.84587 20.416 4.41976 19.9961 5.11963C19.5762 5.8195 19.2262 6.63835 18.9463 7.57617C18.6663 8.514 18.5264 9.5638 18.5264 10.7256V11.2505H17.1616V10.7256C17.1616 9.5638 17.0216 8.514 16.7417 7.57617C16.4757 6.63835 16.1398 5.8265 15.7339 5.14062C15.328 4.44076 14.873 3.86686 14.3691 3.41895C13.8792 2.97103 13.4173 2.65609 12.9834 2.47412Z" fill="white"/>
</svg>
